<?xml version="1.0" encoding="utf-8"?>
<!-- Generator: Adobe Illustrator 21.0.2, SVG Export Plug-In . SVG Version: 6.00 Build 0)  -->
<svg version="1.1" id="Layer_1" xmlns="http://www.w3.org/2000/svg" xmlns:xlink="http://www.w3.org/1999/xlink" x="0px" y="0px"
	 viewBox="0 0 400 400" style="enable-background:new 0 0 400 400;" xml:space="preserve">
<style type="text/css">
	.st0{fill:none;}
	.st1{fill:#5652E1;}
</style>
<g>
	<rect class="st0" width="400" height="400"/>
</g>
<g>
	<path class="st1" d="M9,343.8V61.7h85.2c19.7,0,34.6,1.6,44.6,4.8c10,3.2,18,9.1,23.8,17.5c2.7,4.2,5,8.8,7,13.6
		c1.9,4.8,3.5,11.5,4.6,19.9c1.2,8.4,1.9,19.4,2.3,32.8c0.4,13.4,0.6,30.8,0.6,52.2c0,22.1-0.3,40-0.9,53.7
		c-0.6,13.7-1.4,24.7-2.6,33c-1.2,8.3-2.6,14.8-4.3,19.6c-1.7,4.7-4,9.1-6.7,13c-5.4,8.4-13.1,14.2-23.2,17.3
		c-10.1,3.1-25.1,4.7-45.2,4.7H9z M93.1,309.1c7.7,0,13.4-0.8,17.1-2.4c3.7-1.6,6.5-4.5,8.4-8.8c1.2-2.7,2.2-5.8,3.2-9.3
		c1-3.5,1.6-8.6,2-15.3c0.4-6.7,0.7-15.7,0.9-26.8c0.2-11.2,0.3-26,0.3-44.3c0-17.9-0.1-32.4-0.3-43.4c-0.2-11.1-0.5-20-0.9-26.8
		c-0.4-6.8-1-12-1.7-15.7c-0.8-3.6-1.9-6.8-3.5-9.5c-2.3-4.2-5.3-7.2-9-8.9c-3.7-1.7-9.2-2.6-16.5-2.6H60v213.9H93.1z"/>
	<path class="st1" d="M224.6,343.8V61.7h91c13.1,0,24.3,1.1,33.6,3.4c9.3,2.2,16.6,6.1,22,11.7c5.4,5.6,9.4,13.4,11.9,23.3
		c2.5,9.9,3.8,22.5,3.8,37.6c0,11.2-0.5,20.3-1.4,27.4c-1,7.1-2.4,12.7-4.3,16.8c-1.9,4.1-4.4,7.3-7.5,9.5c-3.1,2.2-6.8,4.1-11,5.6
		v2.2c5.8,2.2,10.6,4.5,14.5,6.7c3.9,2.2,6.8,5.6,8.7,10.1c1.9,4.5,3.3,10.7,4.1,18.8c0.8,8.1,1.2,19.1,1.2,33
		c0,15.2-1.3,27.6-3.8,37.5c-2.5,9.8-6.6,17.6-12.2,23.3c-5.6,5.7-12.9,9.7-21.7,11.9c-8.9,2.2-19.5,3.4-31.9,3.4H224.6z
		 M306.9,186.2c5.8,0,10.6-0.6,14.5-1.7c3.9-1.1,6.8-3.3,8.7-6.5c1.9-3.2,3.3-7.8,4.1-13.6c0.8-5.8,1.2-13.5,1.2-22.9
		c0-7-0.1-12.5-0.3-16.8c-0.2-4.2-0.5-7.7-0.9-10.4c-0.4-2.7-0.9-5-1.4-6.7c-0.6-1.7-1.3-3.4-2-4.8c-1.9-3.5-4.8-5.9-8.7-7.3
		c-3.9-1.4-8.5-2-13.9-2h-32.5v92.8H306.9z M312.2,311.8c5,0,9.3-0.6,12.8-1.7c3.5-1.1,6.3-3.4,8.4-6.9c2.1-3.5,3.6-8.3,4.3-14.5
		c0.8-6.2,1.2-14.4,1.2-24.6c0-11.7-0.5-20.9-1.4-27.6c-1-6.7-2.6-11.8-4.9-15.3c-2.3-3.5-5.3-5.7-9-6.7c-3.7-1-8.4-1.5-14.2-1.5
		h-33.6v98.8H312.2z"/>
</g>
</svg>
